<?xml version="1.0" encoding="utf-8"?>
<!-- Generator: Adobe Illustrator 17.0.1, SVG Export Plug-In . SVG Version: 6.00 Build 0)  -->
<!DOCTYPE svg PUBLIC "-//W3C//DTD SVG 1.1//EN" "http://www.w3.org/Graphics/SVG/1.1/DTD/svg11.dtd">
<svg version="1.1" id="Layer_1" xmlns="http://www.w3.org/2000/svg" xmlns:xlink="http://www.w3.org/1999/xlink" x="0px" y="0px"
	 width="100px" height="100px" viewBox="0 0 100 100" enable-background="new 0 0 100 100" xml:space="preserve">
<path fill="#F2F2F2" d="M75,87.425L50,100L25,87.425L0,100V12.576L25,0l25,12.576L75,0l25,12.576V100L75,87.425z"/>
<path fill="none" stroke="#545454" stroke-width="4" stroke-miterlimit="10" d="M15,60V32l9.988-5.006L50,41l25-12l12,4"/>
<path fill="none" stroke="#F1C40F" stroke-width="4" stroke-miterlimit="10" d="M15,61v-8l10-5l25,13l25-11l12-5V32"/>
<path fill="none" stroke="#545454" stroke-width="4" stroke-miterlimit="10" d="M15,61l35,18l17-8V43l20-10"/>
<path fill="#FFFFFF" d="M87,36.5c-1.93,0-3.5-1.57-3.5-3.5s1.57-3.5,3.5-3.5s3.5,1.57,3.5,3.5S88.93,36.5,87,36.5z"/>
<path fill="#2980BA" d="M87,31c1.103,0,2,0.897,2,2s-0.897,2-2,2s-2-0.897-2-2S85.897,31,87,31 M87,28c-2.761,0-5,2.239-5,5
	s2.239,5,5,5s5-2.239,5-5S89.761,28,87,28z"/>
<path fill="#FFFFFF" d="M15,64.5c-1.93,0-3.5-1.57-3.5-3.5s1.57-3.5,3.5-3.5s3.5,1.57,3.5,3.5S16.93,64.5,15,64.5z"/>
<path fill="#2980BA" d="M15,59c1.103,0,2,0.897,2,2s-0.897,2-2,2s-2-0.897-2-2S13.897,59,15,59 M15,56c-2.761,0-5,2.239-5,5
	s2.239,5,5,5s5-2.239,5-5S17.761,56,15,56z"/>
<path opacity="0.15" fill="#2C3E50" enable-background="new    " d="M0,100l25-12.576V0L0,12.576V100z M50,12.576V100l25-12.576V0
	C75,0,50,12.576,50,12.576z"/>
</svg>
